<?xml version="1.0" standalone="no"?>
<!DOCTYPE svg PUBLIC "-//W3C//DTD SVG 20010904//EN"
 "http://www.w3.org/TR/2001/REC-SVG-20010904/DTD/svg10.dtd">
<svg version="1.0" xmlns="http://www.w3.org/2000/svg"
 width="72.000000pt" height="70.000000pt" viewBox="0 0 72.000000 70.000000"
 preserveAspectRatio="xMidYMid meet">
<metadata>
Created by potrace 1.13, written by Peter Selinger 2001-2015
</metadata>
<g transform="translate(0.000000,70.000000) scale(0.100000,-0.100000)"
fill="#000000" stroke="none">
<path d="M213 407 c-40 -39 -73 -75 -73 -81 0 -7 32 -43 70 -81 l71 -70 131
-2 c96 -2 134 1 140 10 14 21 10 275 -4 284 -7 4 -69 8 -138 9 l-125 1 -72
-70z m292 -82 l0 -120 -93 -3 -93 -3 -59 57 c-33 31 -60 62 -60 69 0 7 27 38
60 69 l59 57 93 -3 93 -3 0 -120z"/>
<path d="M327 384 c-3 -4 4 -19 15 -35 l22 -29 -23 -21 c-16 -15 -20 -24 -12
-32 8 -8 17 -4 34 11 29 27 39 27 62 2 17 -19 45 -27 45 -13 0 4 -10 17 -22
30 l-22 23 22 30 c12 16 22 32 22 35 0 13 -28 3 -45 -15 -10 -11 -23 -20 -30
-20 -7 0 -20 9 -30 20 -19 21 -28 24 -38 14z"/>
</g>
</svg>
